<svg width="512" height="512" viewBox="0 0 512 512" fill="none" xmlns="http://www.w3.org/2000/svg">
<rect width="512" height="512" rx="256" fill="#03989e"/>
<g filter="url(#filter0_d_29_17)">
<path d="M292.868 293.689C308.811 278.397 334.132 278.924 349.424 294.868L418.645 367.037C433.937 382.98 433.41 408.301 417.466 423.593V423.593C401.523 438.885 376.202 438.357 360.91 422.414L291.689 350.245C276.397 334.302 276.925 308.981 292.868 293.689V293.689Z" fill="white"/>
</g>
<g filter="url(#filter1_d_29_17)">
<path d="M406 256C406 338.843 338.843 406 256 406C173.157 406 106 338.843 106 256C106 173.157 173.157 106 256 106C338.843 106 406 173.157 406 256Z" fill="white"/>
</g>
<path d="M406 256C406 338.843 338.843 406 256 406C173.157 406 106 338.843 106 256C106 173.157 173.157 106 256 106C338.843 106 406 173.157 406 256Z" fill="white"/>
<path d="M292.868 293.689C308.811 278.397 334.132 278.924 349.424 294.868L418.645 367.037C433.937 382.98 433.41 408.301 417.466 423.593V423.593C401.523 438.885 376.202 438.357 360.91 422.414L291.689 350.245C276.397 334.302 276.925 308.981 292.868 293.689V293.689Z" fill="white"/>
<circle cx="256" cy="256" r="120" fill="#03989e"/>
<g filter="url(#filter2_d_29_17)">
<path d="M250.861 318.377C213.023 264.895 206 259.406 206 239.75C206 212.826 228.386 191 256 191C283.614 191 306 212.826 306 239.75C306 259.406 298.977 264.895 261.139 318.377C258.655 321.874 253.344 321.874 250.861 318.377ZM256 260.062C267.506 260.062 276.833 250.968 276.833 239.75C276.833 228.532 267.506 219.437 256 219.437C244.494 219.437 235.167 228.532 235.167 239.75C235.167 250.968 244.494 260.062 256 260.062Z" fill="white"/>
</g>
<defs>
<filter id="filter0_d_29_17" x="280.556" y="271.556" width="179.222" height="182.169" filterUnits="userSpaceOnUse" color-interpolation-filters="sRGB">
<feFlood flood-opacity="0" result="BackgroundImageFix"/>
<feColorMatrix in="SourceAlpha" type="matrix" values="0 0 0 0 0 0 0 0 0 0 0 0 0 0 0 0 0 0 127 0" result="hardAlpha"/>
<feOffset dx="15" dy="4"/>
<feGaussianBlur stdDeviation="7.5"/>
<feComposite in2="hardAlpha" operator="out"/>
<feColorMatrix type="matrix" values="0 0 0 0 0.00392157 0 0 0 0 0.219608 0 0 0 0 0.231373 0 0 0 1 0"/>
<feBlend mode="normal" in2="BackgroundImageFix" result="effect1_dropShadow_29_17"/>
<feBlend mode="normal" in="SourceGraphic" in2="effect1_dropShadow_29_17" result="shape"/>
</filter>
<filter id="filter1_d_29_17" x="106" y="106" width="335" height="330" filterUnits="userSpaceOnUse" color-interpolation-filters="sRGB">
<feFlood flood-opacity="0" result="BackgroundImageFix"/>
<feColorMatrix in="SourceAlpha" type="matrix" values="0 0 0 0 0 0 0 0 0 0 0 0 0 0 0 0 0 0 127 0" result="hardAlpha"/>
<feOffset dx="20" dy="15"/>
<feGaussianBlur stdDeviation="7.5"/>
<feComposite in2="hardAlpha" operator="out"/>
<feColorMatrix type="matrix" values="0 0 0 0 0.00392157 0 0 0 0 0.219608 0 0 0 0 0.231373 0 0 0 1 0"/>
<feBlend mode="normal" in2="BackgroundImageFix" result="effect1_dropShadow_29_17"/>
<feBlend mode="normal" in="SourceGraphic" in2="effect1_dropShadow_29_17" result="shape"/>
</filter>
<filter id="filter2_d_29_17" x="199" y="184" width="120" height="150" filterUnits="userSpaceOnUse" color-interpolation-filters="sRGB">
<feFlood flood-opacity="0" result="BackgroundImageFix"/>
<feColorMatrix in="SourceAlpha" type="matrix" values="0 0 0 0 0 0 0 0 0 0 0 0 0 0 0 0 0 0 127 0" result="hardAlpha"/>
<feOffset dx="3" dy="3"/>
<feGaussianBlur stdDeviation="5"/>
<feComposite in2="hardAlpha" operator="out"/>
<feColorMatrix type="matrix" values="0 0 0 0 0.00784314 0 0 0 0 0.588235 0 0 0 0 0.619608 0 0 0 1 0"/>
<feBlend mode="normal" in2="BackgroundImageFix" result="effect1_dropShadow_29_17"/>
<feBlend mode="normal" in="SourceGraphic" in2="effect1_dropShadow_29_17" result="shape"/>
</filter>
</defs>
</svg>
